<svg width="616" height="409" viewBox="0 0 616 409" fill="none" xmlns="http://www.w3.org/2000/svg">
<rect x="354" y="251.81" width="189" height="65" rx="29.5" stroke="#3C3C3C"/>
<path d="M402.78 275.366H404.82L407.076 281.294L409.356 275.366H411.396L408.444 282.782L411.372 289.814L417.132 275.27H419.484L412.356 292.31H410.484L407.1 284.27L403.692 292.31H401.82L394.716 275.27H397.044L402.828 289.814L405.732 282.782L402.78 275.366ZM433.28 290.39V292.31H421.712V275.27H433.064V277.19H423.872V282.71H431.864V284.51H423.872V290.39H433.28ZM449.323 287.918C449.323 288.798 449.099 289.566 448.651 290.222C448.203 290.878 447.595 291.39 446.827 291.758C446.075 292.126 445.243 292.31 444.331 292.31H436.243V275.27H444.715C445.515 275.27 446.203 275.486 446.779 275.918C447.371 276.334 447.819 276.878 448.123 277.55C448.443 278.206 448.603 278.894 448.603 279.614C448.603 280.446 448.387 281.23 447.955 281.966C447.539 282.686 446.939 283.222 446.155 283.574C447.131 283.862 447.899 284.398 448.459 285.182C449.035 285.95 449.323 286.862 449.323 287.918ZM447.139 287.534C447.139 287.006 447.019 286.518 446.779 286.07C446.555 285.622 446.243 285.262 445.843 284.99C445.459 284.718 445.011 284.582 444.499 284.582H438.403V290.438H444.331C444.859 290.438 445.331 290.302 445.747 290.03C446.179 289.758 446.515 289.406 446.755 288.974C447.011 288.526 447.139 288.046 447.139 287.534ZM438.403 277.142V282.83H443.827C444.339 282.83 444.787 282.702 445.171 282.446C445.571 282.19 445.883 281.846 446.107 281.414C446.347 280.982 446.467 280.51 446.467 279.998C446.467 279.454 446.355 278.974 446.131 278.558C445.923 278.126 445.627 277.782 445.243 277.526C444.875 277.27 444.451 277.142 443.971 277.142H438.403ZM462.849 275.27H464.673L471.633 292.31H469.329L467.313 287.318H460.161L458.169 292.31H455.865L462.849 275.27ZM466.833 285.638L463.761 277.766L460.593 285.638H466.833ZM473.907 292.31V275.27H481.011C481.763 275.27 482.451 275.43 483.075 275.75C483.699 276.054 484.243 276.47 484.707 276.998C485.171 277.51 485.531 278.094 485.787 278.75C486.043 279.39 486.171 280.046 486.171 280.718C486.171 281.646 485.963 282.534 485.547 283.382C485.131 284.214 484.547 284.894 483.795 285.422C483.043 285.934 482.163 286.19 481.155 286.19H476.067V292.31H473.907ZM476.067 284.27H481.035C481.627 284.27 482.139 284.11 482.571 283.79C483.019 283.47 483.363 283.038 483.603 282.494C483.859 281.95 483.987 281.358 483.987 280.718C483.987 280.046 483.843 279.446 483.555 278.918C483.267 278.374 482.891 277.95 482.427 277.646C481.963 277.342 481.451 277.19 480.891 277.19H476.067V284.27ZM488.86 292.31V275.27H495.964C496.716 275.27 497.404 275.43 498.028 275.75C498.652 276.054 499.196 276.47 499.66 276.998C500.124 277.51 500.484 278.094 500.74 278.75C500.996 279.39 501.124 280.046 501.124 280.718C501.124 281.646 500.916 282.534 500.5 283.382C500.084 284.214 499.5 284.894 498.748 285.422C497.996 285.934 497.116 286.19 496.108 286.19H491.02V292.31H488.86ZM491.02 284.27H495.988C496.58 284.27 497.092 284.11 497.524 283.79C497.972 283.47 498.316 283.038 498.556 282.494C498.812 281.95 498.94 281.358 498.94 280.718C498.94 280.046 498.796 279.446 498.508 278.918C498.22 278.374 497.844 277.95 497.38 277.646C496.916 277.342 496.404 277.19 495.844 277.19H491.02V284.27Z" fill="#8D8D8D"/>
<rect x="261" y="51.3223" width="351" height="65" rx="29.5" stroke="#3C3C3C"/>
<path d="M303.54 91.8223V74.7823H309.444C311.268 74.7823 312.788 75.1663 314.004 75.9343C315.236 76.6863 316.156 77.7103 316.764 79.0063C317.372 80.2863 317.676 81.7103 317.676 83.2783C317.676 85.0063 317.34 86.5103 316.668 87.7903C315.996 89.0703 315.044 90.0623 313.812 90.7663C312.58 91.4703 311.124 91.8223 309.444 91.8223H303.54ZM315.492 83.2783C315.492 81.9983 315.252 80.8623 314.772 79.8703C314.308 78.8783 313.628 78.1023 312.732 77.5423C311.836 76.9823 310.74 76.7023 309.444 76.7023H305.7V89.9023H309.444C310.756 89.9023 311.86 89.6143 312.756 89.0383C313.652 88.4463 314.332 87.6543 314.796 86.6623C315.26 85.6543 315.492 84.5263 315.492 83.2783ZM320.72 91.8223V74.7823H328.016C328.768 74.7823 329.456 74.9423 330.08 75.2623C330.704 75.5663 331.248 75.9823 331.712 76.5103C332.176 77.0223 332.536 77.6063 332.792 78.2623C333.048 78.9023 333.176 79.5583 333.176 80.2303C333.176 81.0143 333.024 81.7583 332.72 82.4623C332.432 83.1663 332.016 83.7663 331.472 84.2623C330.944 84.7583 330.32 85.1023 329.6 85.2943L333.728 91.8223H331.28L327.392 85.7023H322.88V91.8223H320.72ZM322.88 83.7823H328.04C328.632 83.7823 329.144 83.6223 329.576 83.3023C330.024 82.9663 330.368 82.5263 330.608 81.9823C330.864 81.4383 330.992 80.8543 330.992 80.2303C330.992 79.5903 330.848 79.0063 330.56 78.4783C330.272 77.9343 329.896 77.5023 329.432 77.1823C328.968 76.8623 328.456 76.7023 327.896 76.7023H322.88V83.7823ZM343.405 91.9423C342.205 91.9423 341.117 91.7023 340.141 91.2223C339.165 90.7423 338.317 90.0943 337.597 89.2783C336.893 88.4463 336.349 87.5183 335.965 86.4943C335.581 85.4543 335.389 84.3903 335.389 83.3023C335.389 82.1663 335.589 81.0863 335.989 80.0623C336.405 79.0223 336.973 78.1023 337.693 77.3023C338.429 76.4863 339.285 75.8463 340.261 75.3823C341.237 74.9023 342.301 74.6623 343.453 74.6623C344.653 74.6623 345.741 74.9103 346.717 75.4063C347.693 75.9023 348.533 76.5663 349.237 77.3983C349.941 78.2303 350.485 79.1583 350.869 80.1823C351.253 81.2063 351.445 82.2543 351.445 83.3263C351.445 84.4623 351.245 85.5503 350.845 86.5903C350.445 87.6143 349.877 88.5343 349.141 89.3503C348.421 90.1503 347.573 90.7823 346.597 91.2463C345.621 91.7103 344.557 91.9423 343.405 91.9423ZM337.573 83.3023C337.573 84.1663 337.709 85.0063 337.981 85.8223C338.269 86.6223 338.669 87.3343 339.181 87.9583C339.693 88.5823 340.309 89.0783 341.029 89.4463C341.749 89.8143 342.549 89.9983 343.429 89.9983C344.341 89.9983 345.157 89.8063 345.877 89.4223C346.597 89.0383 347.205 88.5263 347.701 87.8863C348.213 87.2463 348.597 86.5263 348.853 85.7263C349.125 84.9263 349.261 84.1183 349.261 83.3023C349.261 82.4383 349.117 81.6063 348.829 80.8063C348.557 80.0063 348.157 79.2943 347.629 78.6703C347.117 78.0303 346.501 77.5343 345.781 77.1823C345.077 76.8143 344.293 76.6303 343.429 76.6303C342.517 76.6303 341.701 76.8223 340.981 77.2063C340.261 77.5743 339.645 78.0783 339.133 78.7183C338.637 79.3583 338.253 80.0783 337.981 80.8783C337.709 81.6623 337.573 82.4703 337.573 83.3023ZM356.606 78.7663V91.8223H354.446V74.7823H356.27L366.686 88.1023V74.8063H368.846V91.8223H366.878L356.606 78.7663ZM384.483 89.9023V91.8223H372.915V74.7823H384.267V76.7023H375.075V82.2223H383.067V84.0223H375.075V89.9023H384.483ZM393.517 91.8223V74.7823H400.621C401.373 74.7823 402.061 74.9423 402.685 75.2623C403.309 75.5663 403.853 75.9823 404.317 76.5103C404.781 77.0223 405.141 77.6063 405.397 78.2623C405.653 78.9023 405.781 79.5583 405.781 80.2303C405.781 81.1583 405.573 82.0463 405.157 82.8943C404.741 83.7263 404.157 84.4063 403.405 84.9343C402.653 85.4463 401.773 85.7023 400.765 85.7023H395.677V91.8223H393.517ZM395.677 83.7823H400.645C401.237 83.7823 401.749 83.6223 402.181 83.3023C402.629 82.9823 402.973 82.5503 403.213 82.0063C403.469 81.4623 403.597 80.8703 403.597 80.2303C403.597 79.5583 403.453 78.9583 403.165 78.4303C402.877 77.8863 402.501 77.4623 402.037 77.1583C401.573 76.8543 401.061 76.7023 400.501 76.7023H395.677V83.7823ZM422.174 74.7823V91.8223H420.014V84.0703H410.63V91.8223H408.47V74.7823H410.63V82.1503H420.014V74.7823H422.174ZM433.171 91.9423C431.971 91.9423 430.883 91.7023 429.907 91.2223C428.931 90.7423 428.083 90.0943 427.363 89.2783C426.659 88.4463 426.115 87.5183 425.731 86.4943C425.347 85.4543 425.155 84.3903 425.155 83.3023C425.155 82.1663 425.355 81.0863 425.755 80.0623C426.171 79.0223 426.739 78.1023 427.459 77.3023C428.195 76.4863 429.051 75.8463 430.027 75.3823C431.003 74.9023 432.067 74.6623 433.219 74.6623C434.419 74.6623 435.507 74.9103 436.483 75.4063C437.459 75.9023 438.299 76.5663 439.003 77.3983C439.707 78.2303 440.251 79.1583 440.635 80.1823C441.019 81.2063 441.211 82.2543 441.211 83.3263C441.211 84.4623 441.011 85.5503 440.611 86.5903C440.211 87.6143 439.643 88.5343 438.907 89.3503C438.187 90.1503 437.339 90.7823 436.363 91.2463C435.387 91.7103 434.323 91.9423 433.171 91.9423ZM427.339 83.3023C427.339 84.1663 427.475 85.0063 427.747 85.8223C428.035 86.6223 428.435 87.3343 428.947 87.9583C429.459 88.5823 430.075 89.0783 430.795 89.4463C431.515 89.8143 432.315 89.9983 433.195 89.9983C434.107 89.9983 434.923 89.8063 435.643 89.4223C436.363 89.0383 436.971 88.5263 437.467 87.8863C437.979 87.2463 438.363 86.5263 438.619 85.7263C438.891 84.9263 439.027 84.1183 439.027 83.3023C439.027 82.4383 438.883 81.6063 438.595 80.8063C438.323 80.0063 437.923 79.2943 437.395 78.6703C436.883 78.0303 436.267 77.5343 435.547 77.1823C434.843 76.8143 434.059 76.6303 433.195 76.6303C432.283 76.6303 431.467 76.8223 430.747 77.2063C430.027 77.5743 429.411 78.0783 428.899 78.7183C428.403 79.3583 428.019 80.0783 427.747 80.8783C427.475 81.6623 427.339 82.4703 427.339 83.3023ZM455.961 76.7023H450.081V91.8223H447.921V76.7023H442.041V74.7823H455.961V76.7023ZM464.811 91.9423C463.611 91.9423 462.523 91.7023 461.547 91.2223C460.571 90.7423 459.723 90.0943 459.003 89.2783C458.299 88.4463 457.755 87.5183 457.371 86.4943C456.987 85.4543 456.795 84.3903 456.795 83.3023C456.795 82.1663 456.995 81.0863 457.395 80.0623C457.811 79.0223 458.379 78.1023 459.099 77.3023C459.835 76.4863 460.691 75.8463 461.667 75.3823C462.643 74.9023 463.707 74.6623 464.859 74.6623C466.059 74.6623 467.147 74.9103 468.123 75.4063C469.099 75.9023 469.939 76.5663 470.643 77.3983C471.347 78.2303 471.891 79.1583 472.275 80.1823C472.659 81.2063 472.851 82.2543 472.851 83.3263C472.851 84.4623 472.651 85.5503 472.251 86.5903C471.851 87.6143 471.283 88.5343 470.547 89.3503C469.827 90.1503 468.979 90.7823 468.003 91.2463C467.027 91.7103 465.963 91.9423 464.811 91.9423ZM458.979 83.3023C458.979 84.1663 459.115 85.0063 459.387 85.8223C459.675 86.6223 460.075 87.3343 460.587 87.9583C461.099 88.5823 461.715 89.0783 462.435 89.4463C463.155 89.8143 463.955 89.9983 464.835 89.9983C465.747 89.9983 466.563 89.8063 467.283 89.4223C468.003 89.0383 468.611 88.5263 469.107 87.8863C469.619 87.2463 470.003 86.5263 470.259 85.7263C470.531 84.9263 470.667 84.1183 470.667 83.3023C470.667 82.4383 470.523 81.6063 470.235 80.8063C469.963 80.0063 469.563 79.2943 469.035 78.6703C468.523 78.0303 467.907 77.5343 467.187 77.1823C466.483 76.8143 465.699 76.6303 464.835 76.6303C463.923 76.6303 463.107 76.8223 462.387 77.2063C461.667 77.5743 461.051 78.0783 460.539 78.7183C460.043 79.3583 459.659 80.0783 459.387 80.8783C459.115 81.6623 458.979 82.4703 458.979 83.3023ZM482.693 91.9423C481.573 91.9423 480.525 91.7023 479.549 91.2223C478.589 90.7263 477.749 90.0703 477.029 89.2543C476.309 88.4223 475.749 87.4943 475.349 86.4703C474.949 85.4303 474.749 84.3583 474.749 83.2543C474.749 82.1023 474.949 81.0143 475.349 79.9903C475.749 78.9503 476.301 78.0303 477.005 77.2303C477.725 76.4303 478.565 75.8063 479.525 75.3583C480.501 74.8943 481.557 74.6623 482.693 74.6623C484.341 74.6623 485.701 75.0063 486.773 75.6943C487.845 76.3823 488.653 77.2783 489.197 78.3823L487.541 79.5343C487.045 78.5423 486.365 77.8063 485.501 77.3263C484.637 76.8463 483.685 76.6063 482.645 76.6063C481.781 76.6063 480.997 76.7903 480.293 77.1583C479.589 77.5263 478.981 78.0303 478.469 78.6703C477.973 79.2943 477.589 80.0063 477.317 80.8063C477.061 81.6063 476.933 82.4383 476.933 83.3023C476.933 84.2143 477.077 85.0783 477.365 85.8943C477.669 86.6943 478.093 87.4063 478.637 88.0303C479.181 88.6383 479.813 89.1183 480.533 89.4703C481.253 89.8223 482.029 89.9983 482.861 89.9983C483.837 89.9983 484.765 89.7503 485.645 89.2543C486.525 88.7583 487.357 87.9983 488.141 86.9743V89.2063C486.605 91.0303 484.789 91.9423 482.693 91.9423ZM487.877 84.9583H484.205V83.3263H489.701V91.8223H487.877V84.9583ZM492.985 91.8223V74.7823H500.281C501.033 74.7823 501.721 74.9423 502.345 75.2623C502.969 75.5663 503.513 75.9823 503.977 76.5103C504.441 77.0223 504.801 77.6063 505.057 78.2623C505.313 78.9023 505.441 79.5583 505.441 80.2303C505.441 81.0143 505.289 81.7583 504.985 82.4623C504.697 83.1663 504.281 83.7663 503.737 84.2623C503.209 84.7583 502.585 85.1023 501.865 85.2943L505.993 91.8223H503.545L499.657 85.7023H495.145V91.8223H492.985ZM495.145 83.7823H500.305C500.897 83.7823 501.409 83.6223 501.841 83.3023C502.289 82.9663 502.633 82.5263 502.873 81.9823C503.129 81.4383 503.257 80.8543 503.257 80.2303C503.257 79.5903 503.113 79.0063 502.825 78.4783C502.537 77.9343 502.161 77.5023 501.697 77.1823C501.233 76.8623 500.721 76.7023 500.161 76.7023H495.145V83.7823ZM513.943 74.7823H515.767L522.727 91.8223H520.423L518.407 86.8303H511.255L509.263 91.8223H506.959L513.943 74.7823ZM517.927 85.1503L514.855 77.2783L511.687 85.1503H517.927ZM525.001 91.8223V74.7823H532.105C532.857 74.7823 533.545 74.9423 534.169 75.2623C534.793 75.5663 535.337 75.9823 535.801 76.5103C536.265 77.0223 536.625 77.6063 536.881 78.2623C537.137 78.9023 537.265 79.5583 537.265 80.2303C537.265 81.1583 537.057 82.0463 536.641 82.8943C536.225 83.7263 535.641 84.4063 534.889 84.9343C534.137 85.4463 533.257 85.7023 532.249 85.7023H527.161V91.8223H525.001ZM527.161 83.7823H532.129C532.721 83.7823 533.233 83.6223 533.665 83.3023C534.113 82.9823 534.457 82.5503 534.697 82.0063C534.953 81.4623 535.081 80.8703 535.081 80.2303C535.081 79.5583 534.937 78.9583 534.649 78.4303C534.361 77.8863 533.985 77.4623 533.521 77.1583C533.057 76.8543 532.545 76.7023 531.985 76.7023H527.161V83.7823ZM553.658 74.7823V91.8223H551.498V84.0703H542.114V91.8223H539.954V74.7823H542.114V82.1503H551.498V74.7823H553.658ZM558.391 74.7823L563.551 83.6623L568.759 74.7823H571.111L564.631 85.6063V91.8223H562.471V85.5583L556.015 74.7823H558.391Z" fill="#8D8D8D"/>
<rect x="73" y="117.322" width="280" height="65" rx="29.5" stroke="#3C3C3C"/>
<path d="M122.572 157.942C121.212 157.942 120.068 157.71 119.14 157.246C118.212 156.766 117.468 156.126 116.908 155.326C116.348 154.51 115.94 153.59 115.684 152.566C115.428 151.542 115.3 150.486 115.3 149.398V140.782H117.46V149.398C117.46 150.23 117.54 151.046 117.7 151.846C117.876 152.63 118.156 153.334 118.54 153.958C118.924 154.582 119.444 155.078 120.1 155.446C120.756 155.814 121.572 155.998 122.548 155.998C123.54 155.998 124.364 155.814 125.02 155.446C125.676 155.062 126.196 154.558 126.58 153.934C126.964 153.294 127.236 152.582 127.396 151.798C127.572 151.014 127.66 150.214 127.66 149.398V140.782H129.82V149.398C129.82 150.55 129.684 151.646 129.412 152.686C129.156 153.71 128.74 154.614 128.164 155.398C127.588 156.182 126.836 156.806 125.908 157.27C124.996 157.718 123.884 157.942 122.572 157.942ZM143.665 144.358C143.473 144.134 143.217 143.918 142.897 143.71C142.577 143.502 142.217 143.318 141.817 143.158C141.417 142.982 140.977 142.846 140.497 142.75C140.033 142.638 139.545 142.582 139.033 142.582C137.721 142.582 136.753 142.83 136.129 143.326C135.505 143.822 135.193 144.502 135.193 145.366C135.193 145.974 135.353 146.454 135.673 146.806C135.993 147.158 136.481 147.446 137.137 147.67C137.809 147.894 138.657 148.126 139.681 148.366C140.865 148.622 141.889 148.934 142.753 149.302C143.617 149.67 144.281 150.166 144.745 150.79C145.209 151.398 145.441 152.214 145.441 153.238C145.441 154.054 145.281 154.766 144.961 155.374C144.657 155.966 144.225 156.462 143.665 156.862C143.105 157.246 142.449 157.534 141.697 157.726C140.945 157.902 140.129 157.99 139.249 157.99C138.385 157.99 137.537 157.902 136.705 157.726C135.889 157.534 135.113 157.262 134.377 156.91C133.641 156.558 132.953 156.118 132.313 155.59L133.345 153.766C133.601 154.038 133.929 154.31 134.329 154.582C134.745 154.838 135.209 155.078 135.721 155.302C136.249 155.526 136.817 155.71 137.425 155.854C138.033 155.982 138.657 156.046 139.297 156.046C140.513 156.046 141.457 155.83 142.129 155.398C142.801 154.95 143.137 154.302 143.137 153.454C143.137 152.814 142.945 152.302 142.561 151.918C142.193 151.534 141.641 151.214 140.905 150.958C140.169 150.702 139.273 150.446 138.217 150.19C137.065 149.902 136.097 149.59 135.313 149.254C134.529 148.902 133.937 148.446 133.537 147.886C133.153 147.326 132.961 146.598 132.961 145.702C132.961 144.614 133.225 143.694 133.753 142.942C134.281 142.19 135.009 141.622 135.937 141.238C136.865 140.854 137.913 140.662 139.081 140.662C139.849 140.662 140.561 140.742 141.217 140.902C141.889 141.062 142.513 141.286 143.089 141.574C143.665 141.862 144.193 142.206 144.673 142.606L143.665 144.358ZM159.85 155.902V157.822H148.282V140.782H159.634V142.702H150.442V148.222H158.434V150.022H150.442V155.902H159.85ZM162.813 157.822V140.782H170.109C170.861 140.782 171.549 140.942 172.173 141.262C172.797 141.566 173.341 141.982 173.805 142.51C174.269 143.022 174.629 143.606 174.885 144.262C175.141 144.902 175.269 145.558 175.269 146.23C175.269 147.014 175.117 147.758 174.813 148.462C174.525 149.166 174.109 149.766 173.565 150.262C173.037 150.758 172.413 151.102 171.693 151.294L175.821 157.822H173.373L169.485 151.702H164.973V157.822H162.813ZM164.973 149.782H170.133C170.725 149.782 171.237 149.622 171.669 149.302C172.117 148.966 172.461 148.526 172.701 147.982C172.957 147.438 173.085 146.854 173.085 146.23C173.085 145.59 172.941 145.006 172.653 144.478C172.365 143.934 171.989 143.502 171.525 143.182C171.061 142.862 170.549 142.702 169.989 142.702H164.973V149.782ZM184.657 157.822V140.782H186.817V157.822H184.657ZM193.052 144.766V157.822H190.892V140.782H192.716L203.132 154.102V140.806H205.292V157.822H203.324L193.052 144.766ZM221.648 142.702H215.768V157.822H213.608V142.702H207.728V140.782H221.648V142.702ZM235.671 155.902V157.822H224.103V140.782H235.455V142.702H226.263V148.222H234.255V150.022H226.263V155.902H235.671ZM238.634 157.822V140.782H245.93C246.682 140.782 247.37 140.942 247.994 141.262C248.618 141.566 249.162 141.982 249.626 142.51C250.09 143.022 250.45 143.606 250.706 144.262C250.962 144.902 251.09 145.558 251.09 146.23C251.09 147.014 250.938 147.758 250.634 148.462C250.346 149.166 249.93 149.766 249.386 150.262C248.858 150.758 248.234 151.102 247.514 151.294L251.642 157.822H249.194L245.306 151.702H240.794V157.822H238.634ZM240.794 149.782H245.954C246.546 149.782 247.058 149.622 247.49 149.302C247.938 148.966 248.282 148.526 248.522 147.982C248.778 147.438 248.906 146.854 248.906 146.23C248.906 145.59 248.762 145.006 248.474 144.478C248.186 143.934 247.81 143.502 247.346 143.182C246.882 142.862 246.37 142.702 245.81 142.702H240.794V149.782ZM254.407 157.822V140.782H265.663V142.702H256.567V148.39H264.223V150.19H256.567V157.822H254.407ZM272.271 140.782H274.095L281.055 157.822H278.751L276.735 152.83H269.583L267.591 157.822H265.287L272.271 140.782ZM276.255 151.15L273.183 143.278L270.015 151.15H276.255ZM281.592 149.182C281.592 148.142 281.768 147.126 282.12 146.134C282.488 145.126 283.016 144.214 283.704 143.398C284.408 142.566 285.264 141.91 286.272 141.43C287.28 140.934 288.424 140.686 289.704 140.686C291.224 140.686 292.528 141.038 293.616 141.742C294.704 142.43 295.512 143.318 296.04 144.406L294.336 145.51C294 144.79 293.568 144.222 293.04 143.806C292.528 143.374 291.968 143.07 291.36 142.894C290.768 142.718 290.184 142.63 289.608 142.63C288.664 142.63 287.824 142.822 287.088 143.206C286.368 143.59 285.76 144.102 285.264 144.742C284.768 145.382 284.392 146.102 284.136 146.902C283.896 147.686 283.776 148.478 283.776 149.278C283.776 150.158 283.92 151.006 284.208 151.822C284.512 152.638 284.928 153.358 285.456 153.982C285.984 154.606 286.608 155.102 287.328 155.47C288.048 155.838 288.832 156.022 289.68 156.022C290.272 156.022 290.88 155.918 291.504 155.71C292.128 155.502 292.712 155.182 293.256 154.75C293.8 154.302 294.232 153.726 294.552 153.022L296.352 154.006C296 154.854 295.456 155.574 294.72 156.166C293.984 156.758 293.16 157.206 292.248 157.51C291.352 157.814 290.464 157.966 289.584 157.966C288.416 157.966 287.344 157.718 286.368 157.222C285.392 156.71 284.544 156.038 283.824 155.206C283.12 154.358 282.568 153.414 282.168 152.374C281.784 151.318 281.592 150.254 281.592 149.182ZM310.624 155.902V157.822H299.056V140.782H310.408V142.702H301.216V148.222H309.208V150.022H301.216V155.902H310.624Z" fill="#8D8D8D"/>
<rect x="354" y="117.322" width="252" height="65" rx="29.5" stroke="#3C3C3C"/>
<path d="M402.78 140.878H404.82L407.076 146.806L409.356 140.878H411.396L408.444 148.294L411.372 155.326L417.132 140.782H419.484L412.356 157.822H410.484L407.1 149.782L403.692 157.822H401.82L394.716 140.782H397.044L402.828 155.326L405.732 148.294L402.78 140.878ZM421.712 157.822V140.782H423.872V157.822H421.712ZM427.946 157.822V140.782H435.242C435.994 140.782 436.682 140.942 437.306 141.262C437.93 141.566 438.474 141.982 438.938 142.51C439.402 143.022 439.762 143.606 440.018 144.262C440.274 144.902 440.402 145.558 440.402 146.23C440.402 147.014 440.25 147.758 439.946 148.462C439.658 149.166 439.242 149.766 438.698 150.262C438.17 150.758 437.546 151.102 436.826 151.294L440.954 157.822H438.506L434.618 151.702H430.106V157.822H427.946ZM430.106 149.782H435.266C435.858 149.782 436.37 149.622 436.802 149.302C437.25 148.966 437.594 148.526 437.834 147.982C438.09 147.438 438.218 146.854 438.218 146.23C438.218 145.59 438.074 145.006 437.786 144.478C437.498 143.934 437.122 143.502 436.658 143.182C436.194 142.862 435.682 142.702 435.122 142.702H430.106V149.782ZM455.288 155.902V157.822H443.72V140.782H455.072V142.702H445.88V148.222H453.872V150.022H445.88V155.902H455.288ZM458.251 157.822V140.782H469.507V142.702H460.411V148.39H468.067V150.19H460.411V157.822H458.251ZM472.243 157.822V140.782H479.539C480.291 140.782 480.979 140.942 481.603 141.262C482.227 141.566 482.771 141.982 483.235 142.51C483.699 143.022 484.059 143.606 484.315 144.262C484.571 144.902 484.699 145.558 484.699 146.23C484.699 147.014 484.547 147.758 484.243 148.462C483.955 149.166 483.539 149.766 482.995 150.262C482.467 150.758 481.843 151.102 481.123 151.294L485.251 157.822H482.803L478.915 151.702H474.403V157.822H472.243ZM474.403 149.782H479.563C480.155 149.782 480.667 149.622 481.099 149.302C481.547 148.966 481.891 148.526 482.131 147.982C482.387 147.438 482.515 146.854 482.515 146.23C482.515 145.59 482.371 145.006 482.083 144.478C481.795 143.934 481.419 143.502 480.955 143.182C480.491 142.862 479.979 142.702 479.419 142.702H474.403V149.782ZM493.201 140.782H495.025L501.985 157.822H499.681L497.665 152.83H490.513L488.521 157.822H486.217L493.201 140.782ZM497.185 151.15L494.113 143.278L490.945 151.15H497.185ZM518.995 157.822V144.814L513.379 154.822H512.059L506.419 144.814V157.822H504.259V140.782H506.539L512.707 151.846L518.899 140.782H521.155V157.822H518.995ZM525.235 157.822V140.782H527.395V157.822H525.235ZM533.63 144.766V157.822H531.47V140.782H533.294L543.71 154.102V140.806H545.87V157.822H543.902L533.63 144.766ZM556.778 157.942C555.658 157.942 554.61 157.702 553.634 157.222C552.674 156.726 551.834 156.07 551.114 155.254C550.394 154.422 549.834 153.494 549.434 152.47C549.034 151.43 548.834 150.358 548.834 149.254C548.834 148.102 549.034 147.014 549.434 145.99C549.834 144.95 550.386 144.03 551.09 143.23C551.81 142.43 552.65 141.806 553.61 141.358C554.586 140.894 555.642 140.662 556.778 140.662C558.426 140.662 559.786 141.006 560.858 141.694C561.93 142.382 562.738 143.278 563.282 144.382L561.626 145.534C561.13 144.542 560.45 143.806 559.586 143.326C558.722 142.846 557.77 142.606 556.73 142.606C555.866 142.606 555.082 142.79 554.378 143.158C553.674 143.526 553.066 144.03 552.554 144.67C552.058 145.294 551.674 146.006 551.402 146.806C551.146 147.606 551.018 148.438 551.018 149.302C551.018 150.214 551.162 151.078 551.45 151.894C551.754 152.694 552.178 153.406 552.722 154.03C553.266 154.638 553.898 155.118 554.618 155.47C555.338 155.822 556.114 155.998 556.946 155.998C557.922 155.998 558.85 155.75 559.73 155.254C560.61 154.758 561.442 153.998 562.226 152.974V155.206C560.69 157.03 558.874 157.942 556.778 157.942ZM561.962 150.958H558.29V149.326H563.786V157.822H561.962V150.958Z" fill="#8D8D8D"/>
<rect x="366" y="185.81" width="249" height="65" rx="29.5" stroke="#3C3C3C"/>
<path d="M408.54 226.31V209.27H415.644C416.396 209.27 417.084 209.43 417.708 209.75C418.332 210.054 418.876 210.47 419.34 210.998C419.804 211.51 420.164 212.094 420.42 212.75C420.676 213.39 420.804 214.046 420.804 214.718C420.804 215.646 420.596 216.534 420.18 217.382C419.764 218.214 419.18 218.894 418.428 219.422C417.676 219.934 416.796 220.19 415.788 220.19H410.7V226.31H408.54ZM410.7 218.27H415.668C416.26 218.27 416.772 218.11 417.204 217.79C417.652 217.47 417.996 217.038 418.236 216.494C418.492 215.95 418.62 215.358 418.62 214.718C418.62 214.046 418.476 213.446 418.188 212.918C417.9 212.374 417.524 211.95 417.06 211.646C416.596 211.342 416.084 211.19 415.524 211.19H410.7V218.27ZM423.493 226.31V209.27H430.789C431.541 209.27 432.229 209.43 432.853 209.75C433.477 210.054 434.021 210.47 434.485 210.998C434.949 211.51 435.309 212.094 435.565 212.75C435.821 213.39 435.949 214.046 435.949 214.718C435.949 215.502 435.797 216.246 435.493 216.95C435.205 217.654 434.789 218.254 434.245 218.75C433.717 219.246 433.093 219.59 432.373 219.782L436.501 226.31H434.053L430.165 220.19H425.653V226.31H423.493ZM425.653 218.27H430.813C431.405 218.27 431.917 218.11 432.349 217.79C432.797 217.454 433.141 217.014 433.381 216.47C433.637 215.926 433.765 215.342 433.765 214.718C433.765 214.078 433.621 213.494 433.333 212.966C433.045 212.422 432.669 211.99 432.205 211.67C431.741 211.35 431.229 211.19 430.669 211.19H425.653V218.27ZM446.179 226.43C444.979 226.43 443.891 226.19 442.915 225.71C441.939 225.23 441.091 224.582 440.371 223.766C439.667 222.934 439.123 222.006 438.739 220.982C438.355 219.942 438.163 218.878 438.163 217.79C438.163 216.654 438.363 215.574 438.763 214.55C439.179 213.51 439.747 212.59 440.467 211.79C441.203 210.974 442.059 210.334 443.035 209.87C444.011 209.39 445.075 209.15 446.227 209.15C447.427 209.15 448.515 209.398 449.491 209.894C450.467 210.39 451.307 211.054 452.011 211.886C452.715 212.718 453.259 213.646 453.643 214.67C454.027 215.694 454.219 216.742 454.219 217.814C454.219 218.95 454.019 220.038 453.619 221.078C453.219 222.102 452.651 223.022 451.915 223.838C451.195 224.638 450.347 225.27 449.371 225.734C448.395 226.198 447.331 226.43 446.179 226.43ZM440.347 217.79C440.347 218.654 440.483 219.494 440.755 220.31C441.043 221.11 441.443 221.822 441.955 222.446C442.467 223.07 443.083 223.566 443.803 223.934C444.523 224.302 445.323 224.486 446.203 224.486C447.115 224.486 447.931 224.294 448.651 223.91C449.371 223.526 449.979 223.014 450.475 222.374C450.987 221.734 451.371 221.014 451.627 220.214C451.899 219.414 452.035 218.606 452.035 217.79C452.035 216.926 451.891 216.094 451.603 215.294C451.331 214.494 450.931 213.782 450.403 213.158C449.891 212.518 449.275 212.022 448.555 211.67C447.851 211.302 447.067 211.118 446.203 211.118C445.291 211.118 444.475 211.31 443.755 211.694C443.035 212.062 442.419 212.566 441.907 213.206C441.411 213.846 441.027 214.566 440.755 215.366C440.483 216.15 440.347 216.958 440.347 217.79ZM468.969 211.19H463.089V226.31H460.929V211.19H455.049V209.27H468.969V211.19ZM477.819 226.43C476.619 226.43 475.531 226.19 474.555 225.71C473.579 225.23 472.731 224.582 472.011 223.766C471.307 222.934 470.763 222.006 470.379 220.982C469.995 219.942 469.803 218.878 469.803 217.79C469.803 216.654 470.003 215.574 470.403 214.55C470.819 213.51 471.387 212.59 472.107 211.79C472.843 210.974 473.699 210.334 474.675 209.87C475.651 209.39 476.715 209.15 477.867 209.15C479.067 209.15 480.155 209.398 481.131 209.894C482.107 210.39 482.947 211.054 483.651 211.886C484.355 212.718 484.899 213.646 485.283 214.67C485.667 215.694 485.859 216.742 485.859 217.814C485.859 218.95 485.659 220.038 485.259 221.078C484.859 222.102 484.291 223.022 483.555 223.838C482.835 224.638 481.987 225.27 481.011 225.734C480.035 226.198 478.971 226.43 477.819 226.43ZM471.987 217.79C471.987 218.654 472.123 219.494 472.395 220.31C472.683 221.11 473.083 221.822 473.595 222.446C474.107 223.07 474.723 223.566 475.443 223.934C476.163 224.302 476.963 224.486 477.843 224.486C478.755 224.486 479.571 224.294 480.291 223.91C481.011 223.526 481.619 223.014 482.115 222.374C482.627 221.734 483.011 221.014 483.267 220.214C483.539 219.414 483.675 218.606 483.675 217.79C483.675 216.926 483.531 216.094 483.243 215.294C482.971 214.494 482.571 213.782 482.043 213.158C481.531 212.518 480.915 212.022 480.195 211.67C479.491 211.302 478.707 211.118 477.843 211.118C476.931 211.118 476.115 211.31 475.395 211.694C474.675 212.062 474.059 212.566 473.547 213.206C473.051 213.846 472.667 214.566 472.395 215.366C472.123 216.15 471.987 216.958 471.987 217.79ZM500.609 211.19H494.729V226.31H492.569V211.19H486.689V209.27H500.609V211.19ZM503.711 209.27L508.871 218.15L514.079 209.27H516.431L509.951 220.094V226.31H507.791V220.046L501.335 209.27H503.711ZM518.79 226.31V209.27H525.894C526.646 209.27 527.334 209.43 527.958 209.75C528.582 210.054 529.126 210.47 529.59 210.998C530.054 211.51 530.414 212.094 530.67 212.75C530.926 213.39 531.054 214.046 531.054 214.718C531.054 215.646 530.846 216.534 530.43 217.382C530.014 218.214 529.43 218.894 528.678 219.422C527.926 219.934 527.046 220.19 526.038 220.19H520.95V226.31H518.79ZM520.95 218.27H525.918C526.51 218.27 527.022 218.11 527.454 217.79C527.902 217.47 528.246 217.038 528.486 216.494C528.742 215.95 528.87 215.358 528.87 214.718C528.87 214.046 528.726 213.446 528.438 212.918C528.15 212.374 527.774 211.95 527.31 211.646C526.846 211.342 526.334 211.19 525.774 211.19H520.95V218.27ZM533.743 226.31V209.27H535.903V226.31H533.743ZM542.138 213.254V226.31H539.978V209.27H541.802L552.218 222.59V209.294H554.378V226.31H552.41L542.138 213.254ZM565.286 226.43C564.166 226.43 563.118 226.19 562.142 225.71C561.182 225.214 560.342 224.558 559.622 223.742C558.902 222.91 558.342 221.982 557.942 220.958C557.542 219.918 557.342 218.846 557.342 217.742C557.342 216.59 557.542 215.502 557.942 214.478C558.342 213.438 558.894 212.518 559.598 211.718C560.318 210.918 561.158 210.294 562.118 209.846C563.094 209.382 564.15 209.15 565.286 209.15C566.934 209.15 568.294 209.494 569.366 210.182C570.438 210.87 571.246 211.766 571.79 212.87L570.134 214.022C569.638 213.03 568.958 212.294 568.094 211.814C567.23 211.334 566.278 211.094 565.238 211.094C564.374 211.094 563.59 211.278 562.886 211.646C562.182 212.014 561.574 212.518 561.062 213.158C560.566 213.782 560.182 214.494 559.91 215.294C559.654 216.094 559.526 216.926 559.526 217.79C559.526 218.702 559.67 219.566 559.958 220.382C560.262 221.182 560.686 221.894 561.23 222.518C561.774 223.126 562.406 223.606 563.126 223.958C563.846 224.31 564.622 224.486 565.454 224.486C566.43 224.486 567.358 224.238 568.238 223.742C569.118 223.246 569.95 222.486 570.734 221.462V223.694C569.198 225.518 567.382 226.43 565.286 226.43ZM570.47 219.446H566.798V217.814H572.294V226.31H570.47V219.446Z" fill="#8D8D8D"/>
<rect x="133" y="183.81" width="232" height="65" rx="29.5" stroke="#3C3C3C"/>
<path d="M181.78 207.366H183.82L186.076 213.294L188.356 207.366H190.396L187.444 214.782L190.372 221.814L196.132 207.27H198.484L191.356 224.31H189.484L186.1 216.27L182.692 224.31H180.82L173.716 207.27H176.044L181.828 221.814L184.732 214.782L181.78 207.366ZM212.28 222.39V224.31H200.712V207.27H212.064V209.19H202.872V214.71H210.864V216.51H202.872V222.39H212.28ZM228.323 219.918C228.323 220.798 228.099 221.566 227.651 222.222C227.203 222.878 226.595 223.39 225.827 223.758C225.075 224.126 224.243 224.31 223.331 224.31H215.243V207.27H223.715C224.515 207.27 225.203 207.486 225.779 207.918C226.371 208.334 226.819 208.878 227.123 209.55C227.443 210.206 227.603 210.894 227.603 211.614C227.603 212.446 227.387 213.23 226.955 213.966C226.539 214.686 225.939 215.222 225.155 215.574C226.131 215.862 226.899 216.398 227.459 217.182C228.035 217.95 228.323 218.862 228.323 219.918ZM226.139 219.534C226.139 219.006 226.019 218.518 225.779 218.07C225.555 217.622 225.243 217.262 224.843 216.99C224.459 216.718 224.011 216.582 223.499 216.582H217.403V222.438H223.331C223.859 222.438 224.331 222.302 224.747 222.03C225.179 221.758 225.515 221.406 225.755 220.974C226.011 220.526 226.139 220.046 226.139 219.534ZM217.403 209.142V214.83H222.827C223.339 214.83 223.787 214.702 224.171 214.446C224.571 214.19 224.883 213.846 225.107 213.414C225.347 212.982 225.467 212.51 225.467 211.998C225.467 211.454 225.355 210.974 225.131 210.558C224.923 210.126 224.627 209.782 224.243 209.526C223.875 209.27 223.451 209.142 222.971 209.142H217.403ZM237.415 224.31V207.27H243.319C245.143 207.27 246.663 207.654 247.879 208.422C249.111 209.174 250.031 210.198 250.639 211.494C251.247 212.774 251.551 214.198 251.551 215.766C251.551 217.494 251.215 218.998 250.543 220.278C249.871 221.558 248.919 222.55 247.687 223.254C246.455 223.958 244.999 224.31 243.319 224.31H237.415ZM249.367 215.766C249.367 214.486 249.127 213.35 248.647 212.358C248.183 211.366 247.503 210.59 246.607 210.03C245.711 209.47 244.615 209.19 243.319 209.19H239.575V222.39H243.319C244.631 222.39 245.735 222.102 246.631 221.526C247.527 220.934 248.207 220.142 248.671 219.15C249.135 218.142 249.367 217.014 249.367 215.766ZM266.163 222.39V224.31H254.595V207.27H265.947V209.19H256.755V214.71H264.747V216.51H256.755V222.39H266.163ZM279.134 210.846C278.942 210.622 278.686 210.406 278.366 210.198C278.046 209.99 277.686 209.806 277.286 209.646C276.886 209.47 276.446 209.334 275.966 209.238C275.502 209.126 275.014 209.07 274.502 209.07C273.19 209.07 272.222 209.318 271.598 209.814C270.974 210.31 270.662 210.99 270.662 211.854C270.662 212.462 270.822 212.942 271.142 213.294C271.462 213.646 271.95 213.934 272.606 214.158C273.278 214.382 274.126 214.614 275.15 214.854C276.334 215.11 277.358 215.422 278.222 215.79C279.086 216.158 279.75 216.654 280.214 217.278C280.678 217.886 280.91 218.702 280.91 219.726C280.91 220.542 280.75 221.254 280.43 221.862C280.126 222.454 279.694 222.95 279.134 223.35C278.574 223.734 277.918 224.022 277.166 224.214C276.414 224.39 275.598 224.478 274.718 224.478C273.854 224.478 273.006 224.39 272.174 224.214C271.358 224.022 270.582 223.75 269.846 223.398C269.11 223.046 268.422 222.606 267.782 222.078L268.814 220.254C269.07 220.526 269.398 220.798 269.798 221.07C270.214 221.326 270.678 221.566 271.19 221.79C271.718 222.014 272.286 222.198 272.894 222.342C273.502 222.47 274.126 222.534 274.766 222.534C275.982 222.534 276.926 222.318 277.598 221.886C278.27 221.438 278.606 220.79 278.606 219.942C278.606 219.302 278.414 218.79 278.03 218.406C277.662 218.022 277.11 217.702 276.374 217.446C275.638 217.19 274.742 216.934 273.686 216.678C272.534 216.39 271.566 216.078 270.782 215.742C269.998 215.39 269.406 214.934 269.006 214.374C268.622 213.814 268.43 213.086 268.43 212.19C268.43 211.102 268.694 210.182 269.222 209.43C269.75 208.678 270.478 208.11 271.406 207.726C272.334 207.342 273.382 207.15 274.55 207.15C275.318 207.15 276.03 207.23 276.686 207.39C277.358 207.55 277.982 207.774 278.558 208.062C279.134 208.35 279.662 208.694 280.142 209.094L279.134 210.846ZM283.751 224.31V207.27H285.911V224.31H283.751ZM296.825 224.43C295.705 224.43 294.657 224.19 293.681 223.71C292.721 223.214 291.881 222.558 291.161 221.742C290.441 220.91 289.881 219.982 289.481 218.958C289.081 217.918 288.881 216.846 288.881 215.742C288.881 214.59 289.081 213.502 289.481 212.478C289.881 211.438 290.433 210.518 291.137 209.718C291.857 208.918 292.697 208.294 293.657 207.846C294.633 207.382 295.689 207.15 296.825 207.15C298.473 207.15 299.833 207.494 300.905 208.182C301.977 208.87 302.785 209.766 303.329 210.87L301.673 212.022C301.177 211.03 300.497 210.294 299.633 209.814C298.769 209.334 297.817 209.094 296.777 209.094C295.913 209.094 295.129 209.278 294.425 209.646C293.721 210.014 293.113 210.518 292.601 211.158C292.105 211.782 291.721 212.494 291.449 213.294C291.193 214.094 291.065 214.926 291.065 215.79C291.065 216.702 291.209 217.566 291.497 218.382C291.801 219.182 292.225 219.894 292.769 220.518C293.313 221.126 293.945 221.606 294.665 221.958C295.385 222.31 296.161 222.486 296.993 222.486C297.969 222.486 298.897 222.238 299.777 221.742C300.657 221.246 301.489 220.486 302.273 219.462V221.694C300.737 223.518 298.921 224.43 296.825 224.43ZM302.009 217.446H298.337V215.814H303.833V224.31H302.009V217.446ZM309.278 211.254V224.31H307.118V207.27H308.942L319.358 220.59V207.294H321.518V224.31H319.55L309.278 211.254Z" fill="#8D8D8D"/>
<rect x="115.856" y="311.866" width="261" height="65" rx="29.5" transform="rotate(6.89191 115.856 311.866)" fill="#FFCF01"/>
<rect x="115.856" y="311.866" width="261" height="65" rx="29.5" transform="rotate(6.89191 115.856 311.866)" stroke="#3C3C3C"/>
<path d="M153.229 357.178L155.274 340.261L162.326 341.114C163.073 341.204 163.737 341.446 164.318 341.838C164.901 342.215 165.391 342.693 165.788 343.273C166.188 343.837 166.475 344.46 166.65 345.142C166.828 345.808 166.876 346.475 166.795 347.142C166.684 348.063 166.371 348.92 165.856 349.712C165.343 350.488 164.682 351.093 163.872 351.527C163.064 351.945 162.16 352.093 161.159 351.972L156.108 351.362L155.373 357.438L153.229 357.178ZM156.338 349.456L161.27 350.052C161.858 350.123 162.386 350.025 162.853 349.76C163.336 349.496 163.729 349.108 164.033 348.597C164.352 348.087 164.55 347.515 164.627 346.88C164.708 346.213 164.637 345.6 164.414 345.041C164.194 344.466 163.871 344 163.447 343.643C163.023 343.285 162.533 343.073 161.977 343.006L157.188 342.427L156.338 349.456ZM183.724 343.7L181.679 360.617L179.535 360.358L180.465 352.662L171.149 351.536L170.219 359.232L168.074 358.973L170.119 342.056L172.263 342.315L171.379 349.63L180.695 350.756L181.579 343.441L183.724 343.7ZM192.582 362.056C191.391 361.912 190.34 361.543 189.428 360.949C188.517 360.356 187.753 359.611 187.136 358.714C186.537 357.804 186.108 356.817 185.85 355.754C185.593 354.676 185.53 353.597 185.661 352.516C185.797 351.389 186.126 350.34 186.645 349.372C187.183 348.389 187.858 347.544 188.668 346.836C189.497 346.114 190.424 345.582 191.448 345.238C192.475 344.879 193.56 344.768 194.704 344.906C195.895 345.05 196.945 345.427 197.855 346.037C198.764 346.646 199.518 347.406 200.117 348.317C200.717 349.227 201.145 350.214 201.404 351.276C201.662 352.339 201.727 353.403 201.598 354.467C201.462 355.595 201.133 356.651 200.611 357.635C200.091 358.604 199.417 359.449 198.588 360.171C197.777 360.879 196.859 361.404 195.835 361.748C194.81 362.091 193.726 362.194 192.582 362.056ZM187.829 352.778C187.726 353.636 187.76 354.486 187.932 355.329C188.122 356.158 188.434 356.913 188.867 357.594C189.3 358.275 189.852 358.841 190.523 359.293C191.194 359.745 191.966 360.023 192.839 360.129C193.745 360.238 194.578 360.146 195.339 359.851C196.1 359.556 196.765 359.121 197.334 358.545C197.919 357.971 198.387 357.302 198.737 356.539C199.103 355.777 199.335 354.991 199.433 354.181C199.536 353.323 199.493 352.48 199.303 351.651C199.129 350.824 198.818 350.069 198.368 349.387C197.937 348.69 197.385 348.123 196.712 347.688C196.058 347.238 195.301 346.961 194.444 346.857C193.538 346.748 192.705 346.841 191.944 347.135C191.185 347.414 190.513 347.841 189.928 348.415C189.359 348.991 188.891 349.659 188.525 350.421C188.161 351.167 187.929 351.952 187.829 352.778ZM217.036 349.661L211.199 348.955L209.385 363.966L207.24 363.707L209.055 348.696L203.217 347.99L203.447 346.084L217.267 347.755L217.036 349.661ZM223.994 365.853C222.803 365.709 221.752 365.34 220.84 364.746C219.929 364.153 219.165 363.407 218.548 362.511C217.949 361.6 217.52 360.614 217.262 359.551C217.005 358.473 216.942 357.393 217.073 356.313C217.209 355.185 217.538 354.137 218.057 353.169C218.595 352.186 219.27 351.341 220.08 350.633C220.909 349.911 221.836 349.379 222.86 349.035C223.887 348.676 224.972 348.565 226.116 348.703C227.307 348.847 228.357 349.224 229.267 349.834C230.176 350.443 230.93 351.203 231.529 352.114C232.129 353.024 232.557 354.011 232.816 355.073C233.074 356.136 233.139 357.199 233.01 358.264C232.874 359.391 232.545 360.448 232.023 361.432C231.503 362.401 230.829 363.246 230 363.968C229.189 364.675 228.271 365.201 227.247 365.545C226.222 365.888 225.138 365.991 223.994 365.853ZM219.241 356.575C219.138 357.433 219.172 358.283 219.344 359.126C219.534 359.955 219.846 360.71 220.279 361.391C220.712 362.071 221.264 362.638 221.935 363.09C222.606 363.541 223.378 363.82 224.251 363.926C225.157 364.035 225.99 363.942 226.751 363.647C227.512 363.353 228.177 362.917 228.746 362.341C229.331 361.768 229.799 361.099 230.149 360.335C230.515 359.574 230.747 358.788 230.845 357.978C230.948 357.12 230.905 356.277 230.715 355.448C230.541 354.621 230.23 353.866 229.78 353.183C229.349 352.487 228.797 351.92 228.124 351.484C227.47 351.035 226.713 350.758 225.856 350.654C224.95 350.545 224.117 350.637 223.356 350.932C222.597 351.211 221.925 351.638 221.34 352.212C220.771 352.787 220.303 353.456 219.937 354.218C219.573 354.963 219.341 355.749 219.241 356.575ZM241.746 367.998C240.634 367.864 239.623 367.5 238.711 366.906C237.818 366.299 237.063 365.547 236.446 364.65C235.831 363.738 235.386 362.749 235.112 361.685C234.84 360.604 234.77 359.516 234.902 358.42C235.04 357.276 235.37 356.22 235.89 355.251C236.411 354.267 237.07 353.42 237.865 352.71C238.676 352.002 239.584 351.484 240.591 351.154C241.616 350.81 242.692 350.707 243.82 350.843C245.456 351.041 246.765 351.546 247.746 352.357C248.728 353.169 249.423 354.155 249.83 355.317L248.048 356.262C247.675 355.217 247.088 354.405 246.288 353.825C245.488 353.245 244.571 352.892 243.539 352.767C242.681 352.664 241.881 352.752 241.138 353.033C240.395 353.314 239.73 353.741 239.145 354.315C238.578 354.875 238.111 355.536 237.745 356.298C237.395 357.061 237.168 357.872 237.065 358.73C236.955 359.635 236.994 360.51 237.183 361.355C237.388 362.185 237.724 362.943 238.189 363.628C238.656 364.297 239.226 364.849 239.899 365.285C240.571 365.721 241.32 365.989 242.146 366.089C243.115 366.206 244.066 366.071 244.999 365.684C245.933 365.297 246.85 364.642 247.751 363.72L247.483 365.936C245.739 367.562 243.827 368.25 241.746 367.998ZM247.731 361.687L244.085 361.246L244.281 359.626L249.738 360.285L248.718 368.72L246.907 368.501L247.731 361.687ZM251.979 369.114L254.024 352.197L261.267 353.073C262.014 353.163 262.678 353.405 263.259 353.797C263.842 354.174 264.332 354.652 264.729 355.232C265.128 355.796 265.416 356.419 265.591 357.101C265.768 357.767 265.817 358.434 265.736 359.101C265.642 359.879 265.402 360.599 265.016 361.262C264.645 361.926 264.16 362.472 263.561 362.899C262.977 363.328 262.316 363.595 261.578 363.699L264.893 370.675L262.463 370.381L259.337 363.839L254.858 363.298L254.123 369.373L251.979 369.114ZM255.088 361.392L260.211 362.011C260.799 362.082 261.326 361.984 261.793 361.719C262.279 361.439 262.673 361.043 262.976 360.532C263.296 360.023 263.493 359.458 263.568 358.839C263.645 358.203 263.572 357.606 263.349 357.047C263.129 356.473 262.807 355.999 262.385 355.625C261.963 355.252 261.474 355.032 260.918 354.965L255.938 354.363L255.088 361.392ZM274.83 354.712L276.641 354.931L281.506 372.683L279.218 372.407L277.816 367.209L270.716 366.351L268.139 371.068L265.852 370.791L274.83 354.712ZM277.541 365.483L275.436 357.3L271.346 364.735L277.541 365.483ZM283.763 372.956L285.808 356.039L292.861 356.892C293.607 356.982 294.271 357.223 294.852 357.616C295.435 357.993 295.925 358.471 296.323 359.051C296.722 359.615 297.009 360.238 297.185 360.92C297.362 361.586 297.41 362.252 297.33 362.919C297.218 363.841 296.905 364.697 296.391 365.489C295.878 366.265 295.216 366.87 294.406 367.304C293.598 367.722 292.694 367.871 291.693 367.75L286.642 367.139L285.908 373.215L283.763 372.956ZM286.873 365.233L291.805 365.829C292.392 365.901 292.92 365.803 293.387 365.537C293.87 365.273 294.264 364.886 294.567 364.374C294.887 363.865 295.085 363.293 295.162 362.657C295.242 361.99 295.171 361.377 294.949 360.819C294.728 360.244 294.406 359.778 293.981 359.42C293.557 359.063 293.067 358.851 292.511 358.783L287.722 358.204L286.873 365.233ZM314.258 359.478L312.213 376.395L310.069 376.136L310.999 368.44L301.683 367.314L300.753 375.01L298.608 374.75L300.653 357.833L302.798 358.093L301.913 365.407L311.23 366.533L312.114 359.219L314.258 359.478ZM318.957 360.046L323.014 369.481L329.25 361.29L331.585 361.572L323.853 371.54L323.107 377.712L320.963 377.452L321.714 371.234L316.598 359.761L318.957 360.046Z" fill="#3C3C3C"/>
<rect x="376" y="317.81" width="217" height="65" rx="29.5" stroke="#3C3C3C"/>
<path d="M417.436 349.67C417.436 348.63 417.612 347.614 417.964 346.622C418.332 345.614 418.86 344.702 419.548 343.886C420.252 343.054 421.108 342.398 422.116 341.918C423.124 341.422 424.268 341.174 425.548 341.174C427.068 341.174 428.372 341.526 429.46 342.23C430.548 342.918 431.356 343.806 431.884 344.894L430.18 345.998C429.844 345.278 429.412 344.71 428.884 344.294C428.372 343.862 427.812 343.558 427.204 343.382C426.612 343.206 426.028 343.118 425.452 343.118C424.508 343.118 423.668 343.31 422.932 343.694C422.212 344.078 421.604 344.59 421.108 345.23C420.612 345.87 420.236 346.59 419.98 347.39C419.74 348.174 419.62 348.966 419.62 349.766C419.62 350.646 419.764 351.494 420.052 352.31C420.356 353.126 420.772 353.846 421.3 354.47C421.828 355.094 422.452 355.59 423.172 355.958C423.892 356.326 424.676 356.51 425.524 356.51C426.116 356.51 426.724 356.406 427.348 356.198C427.972 355.99 428.556 355.67 429.1 355.238C429.644 354.79 430.076 354.214 430.396 353.51L432.196 354.494C431.844 355.342 431.3 356.062 430.564 356.654C429.828 357.246 429.004 357.694 428.092 357.998C427.196 358.302 426.308 358.454 425.428 358.454C424.26 358.454 423.188 358.206 422.212 357.71C421.236 357.198 420.388 356.526 419.668 355.694C418.964 354.846 418.412 353.902 418.012 352.862C417.628 351.806 417.436 350.742 417.436 349.67ZM434.899 358.31V341.27H442.195C442.947 341.27 443.635 341.43 444.259 341.75C444.883 342.054 445.427 342.47 445.891 342.998C446.355 343.51 446.715 344.094 446.971 344.75C447.227 345.39 447.355 346.046 447.355 346.718C447.355 347.502 447.203 348.246 446.899 348.95C446.611 349.654 446.195 350.254 445.651 350.75C445.123 351.246 444.499 351.59 443.779 351.782L447.907 358.31H445.459L441.571 352.19H437.059V358.31H434.899ZM437.059 350.27H442.219C442.811 350.27 443.323 350.11 443.755 349.79C444.203 349.454 444.547 349.014 444.787 348.47C445.043 347.926 445.171 347.342 445.171 346.718C445.171 346.078 445.027 345.494 444.739 344.966C444.451 344.422 444.075 343.99 443.611 343.67C443.147 343.35 442.635 343.19 442.075 343.19H437.059V350.27ZM462.241 356.39V358.31H450.673V341.27H462.025V343.19H452.833V348.71H460.825V350.51H452.833V356.39H462.241ZM470.388 341.27H472.212L479.172 358.31H476.868L474.852 353.318H467.7L465.708 358.31H463.404L470.388 341.27ZM474.372 351.638L471.3 343.766L468.132 351.638H474.372ZM492.117 343.19H486.237V358.31H484.077V343.19H478.197V341.27H492.117V343.19ZM494.571 358.31V341.27H496.731V358.31H494.571ZM501.286 341.27L506.926 355.598L512.542 341.27H514.822L507.91 358.31H505.942L499.006 341.27H501.286ZM517.118 358.31V341.27H519.278V358.31H517.118ZM535.641 343.19H529.761V358.31H527.601V343.19H521.721V341.27H535.641V343.19ZM538.743 341.27L543.903 350.15L549.111 341.27H551.463L544.983 352.094V358.31H542.823V352.046L536.367 341.27H538.743Z" fill="#8D8D8D"/>
<rect x="93" y="249.81" width="260" height="65" rx="29.5" stroke="#3C3C3C"/>
<path d="M148.62 285.918C148.62 286.798 148.396 287.566 147.948 288.222C147.5 288.878 146.892 289.39 146.124 289.758C145.372 290.126 144.54 290.31 143.628 290.31H135.54V273.27H144.012C144.812 273.27 145.5 273.486 146.076 273.918C146.668 274.334 147.116 274.878 147.42 275.55C147.74 276.206 147.9 276.894 147.9 277.614C147.9 278.446 147.684 279.23 147.252 279.966C146.836 280.686 146.236 281.222 145.452 281.574C146.428 281.862 147.196 282.398 147.756 283.182C148.332 283.95 148.62 284.862 148.62 285.918ZM146.436 285.534C146.436 285.006 146.316 284.518 146.076 284.07C145.852 283.622 145.54 283.262 145.14 282.99C144.756 282.718 144.308 282.582 143.796 282.582H137.7V288.438H143.628C144.156 288.438 144.628 288.302 145.044 288.03C145.476 287.758 145.812 287.406 146.052 286.974C146.308 286.526 146.436 286.046 146.436 285.534ZM137.7 275.142V280.83H143.124C143.636 280.83 144.084 280.702 144.468 280.446C144.868 280.19 145.18 279.846 145.404 279.414C145.644 278.982 145.764 278.51 145.764 277.998C145.764 277.454 145.652 276.974 145.428 276.558C145.22 276.126 144.924 275.782 144.54 275.526C144.172 275.27 143.748 275.142 143.268 275.142H137.7ZM151.642 290.31V273.27H158.938C159.69 273.27 160.378 273.43 161.002 273.75C161.626 274.054 162.17 274.47 162.634 274.998C163.098 275.51 163.458 276.094 163.714 276.75C163.97 277.39 164.098 278.046 164.098 278.718C164.098 279.502 163.946 280.246 163.642 280.95C163.354 281.654 162.938 282.254 162.394 282.75C161.866 283.246 161.242 283.59 160.522 283.782L164.65 290.31H162.202L158.314 284.19H153.802V290.31H151.642ZM153.802 282.27H158.962C159.554 282.27 160.066 282.11 160.498 281.79C160.946 281.454 161.29 281.014 161.53 280.47C161.786 279.926 161.914 279.342 161.914 278.718C161.914 278.078 161.77 277.494 161.482 276.966C161.194 276.422 160.818 275.99 160.354 275.67C159.89 275.35 159.378 275.19 158.818 275.19H153.802V282.27ZM172.599 273.27H174.423L181.383 290.31H179.079L177.063 285.318H169.911L167.919 290.31H165.615L172.599 273.27ZM176.583 283.638L173.511 275.766L170.343 283.638H176.583ZM185.817 277.254V290.31H183.657V273.27H185.481L195.897 286.59V273.294H198.057V290.31H196.089L185.817 277.254ZM202.126 290.31V273.27H208.03C209.854 273.27 211.374 273.654 212.59 274.422C213.822 275.174 214.742 276.198 215.35 277.494C215.958 278.774 216.262 280.198 216.262 281.766C216.262 283.494 215.926 284.998 215.254 286.278C214.582 287.558 213.63 288.55 212.398 289.254C211.166 289.958 209.71 290.31 208.03 290.31H202.126ZM214.078 281.766C214.078 280.486 213.838 279.35 213.358 278.358C212.894 277.366 212.214 276.59 211.318 276.03C210.422 275.47 209.326 275.19 208.03 275.19H204.286V288.39H208.03C209.342 288.39 210.446 288.102 211.342 287.526C212.238 286.934 212.918 286.142 213.382 285.15C213.846 284.142 214.078 283.014 214.078 281.766ZM225.376 290.31V273.27H231.28C233.104 273.27 234.624 273.654 235.84 274.422C237.072 275.174 237.992 276.198 238.6 277.494C239.208 278.774 239.512 280.198 239.512 281.766C239.512 283.494 239.176 284.998 238.504 286.278C237.832 287.558 236.88 288.55 235.648 289.254C234.416 289.958 232.96 290.31 231.28 290.31H225.376ZM237.328 281.766C237.328 280.486 237.088 279.35 236.608 278.358C236.144 277.366 235.464 276.59 234.568 276.03C233.672 275.47 232.576 275.19 231.28 275.19H227.536V288.39H231.28C232.592 288.39 233.696 288.102 234.592 287.526C235.488 286.934 236.168 286.142 236.632 285.15C237.096 284.142 237.328 283.014 237.328 281.766ZM254.124 288.39V290.31H242.556V273.27H253.908V275.19H244.716V280.71H252.708V282.51H244.716V288.39H254.124ZM267.095 276.846C266.903 276.622 266.647 276.406 266.327 276.198C266.007 275.99 265.647 275.806 265.247 275.646C264.847 275.47 264.407 275.334 263.927 275.238C263.463 275.126 262.975 275.07 262.463 275.07C261.151 275.07 260.183 275.318 259.559 275.814C258.935 276.31 258.623 276.99 258.623 277.854C258.623 278.462 258.783 278.942 259.103 279.294C259.423 279.646 259.911 279.934 260.567 280.158C261.239 280.382 262.087 280.614 263.111 280.854C264.295 281.11 265.319 281.422 266.183 281.79C267.047 282.158 267.711 282.654 268.175 283.278C268.639 283.886 268.871 284.702 268.871 285.726C268.871 286.542 268.711 287.254 268.391 287.862C268.087 288.454 267.655 288.95 267.095 289.35C266.535 289.734 265.879 290.022 265.127 290.214C264.375 290.39 263.559 290.478 262.679 290.478C261.815 290.478 260.967 290.39 260.135 290.214C259.319 290.022 258.543 289.75 257.807 289.398C257.071 289.046 256.383 288.606 255.743 288.078L256.775 286.254C257.031 286.526 257.359 286.798 257.759 287.07C258.175 287.326 258.639 287.566 259.151 287.79C259.679 288.014 260.247 288.198 260.855 288.342C261.463 288.47 262.087 288.534 262.727 288.534C263.943 288.534 264.887 288.318 265.559 287.886C266.231 287.438 266.567 286.79 266.567 285.942C266.567 285.302 266.375 284.79 265.991 284.406C265.623 284.022 265.071 283.702 264.335 283.446C263.599 283.19 262.703 282.934 261.647 282.678C260.495 282.39 259.527 282.078 258.743 281.742C257.959 281.39 257.367 280.934 256.967 280.374C256.583 279.814 256.391 279.086 256.391 278.19C256.391 277.102 256.655 276.182 257.183 275.43C257.711 274.678 258.439 274.11 259.367 273.726C260.295 273.342 261.343 273.15 262.511 273.15C263.279 273.15 263.991 273.23 264.647 273.39C265.319 273.55 265.943 273.774 266.519 274.062C267.095 274.35 267.623 274.694 268.103 275.094L267.095 276.846ZM271.712 290.31V273.27H273.872V290.31H271.712ZM284.786 290.43C283.666 290.43 282.618 290.19 281.642 289.71C280.682 289.214 279.842 288.558 279.122 287.742C278.402 286.91 277.842 285.982 277.442 284.958C277.042 283.918 276.842 282.846 276.842 281.742C276.842 280.59 277.042 279.502 277.442 278.478C277.842 277.438 278.394 276.518 279.098 275.718C279.818 274.918 280.658 274.294 281.618 273.846C282.594 273.382 283.65 273.15 284.786 273.15C286.434 273.15 287.794 273.494 288.866 274.182C289.938 274.87 290.746 275.766 291.29 276.87L289.634 278.022C289.138 277.03 288.458 276.294 287.594 275.814C286.73 275.334 285.778 275.094 284.738 275.094C283.874 275.094 283.09 275.278 282.386 275.646C281.682 276.014 281.074 276.518 280.562 277.158C280.066 277.782 279.682 278.494 279.41 279.294C279.154 280.094 279.026 280.926 279.026 281.79C279.026 282.702 279.17 283.566 279.458 284.382C279.762 285.182 280.186 285.894 280.73 286.518C281.274 287.126 281.906 287.606 282.626 287.958C283.346 288.31 284.122 288.486 284.954 288.486C285.93 288.486 286.858 288.238 287.738 287.742C288.618 287.246 289.45 286.486 290.234 285.462V287.694C288.698 289.518 286.882 290.43 284.786 290.43ZM289.97 283.446H286.298V281.814H291.794V290.31H289.97V283.446ZM297.239 277.254V290.31H295.079V273.27H296.903L307.319 286.59V273.294H309.479V290.31H307.511L297.239 277.254Z" fill="#8D8D8D"/>
<rect x="1.04385" y="24.7561" width="260" height="65" rx="29.5" transform="rotate(-5.27472 1.04385 24.7561)" fill="#FFCF01"/>
<rect x="1.04385" y="24.7561" width="260" height="65" rx="29.5" transform="rotate(-5.27472 1.04385 24.7561)" stroke="#3C3C3C"/>
<path d="M46.0385 44.1619L52.9719 57.9108L57.2469 43.1271L59.5172 42.9175L54.201 60.5208L52.2413 60.7017L43.7682 44.3715L46.0385 44.1619ZM63.3705 59.6743L61.804 42.7064L63.9549 42.5078L65.5214 59.4757L63.3705 59.6743ZM78.3063 44.7741C78.0946 44.5687 77.8198 44.3771 77.482 44.1994C77.1443 44.0217 76.7689 43.8716 76.3559 43.7491C75.9414 43.6106 75.4907 43.5156 75.0039 43.4641C74.5316 43.3953 74.0405 43.3844 73.5307 43.4314C72.2242 43.5521 71.2831 43.888 70.7074 44.4393C70.1316 44.9905 69.8835 45.6963 69.9629 46.5567C70.0188 47.1621 70.2222 47.6253 70.5732 47.9464C70.9242 48.2675 71.4367 48.5094 72.1105 48.6722C72.8002 48.8335 73.6659 48.9865 74.7077 49.1314C75.9102 49.2774 76.9585 49.494 77.8527 49.781C78.7469 50.068 79.4537 50.5009 79.9731 51.0796C80.491 51.6423 80.797 52.4336 80.8912 53.4532C80.9662 54.2658 80.8723 54.9895 80.6096 55.6243C80.3613 56.2417 79.9767 56.7754 79.4559 57.2251C78.9335 57.659 78.3068 58.0061 77.5756 58.2664C76.843 58.5108 76.0385 58.6734 75.1623 58.7543C74.3019 58.8338 73.4494 58.8241 72.6048 58.7253C71.7746 58.6092 70.9768 58.4096 70.2116 58.1268C69.4464 57.8439 68.7208 57.4691 68.035 57.0021L68.8949 55.091C69.1749 55.3383 69.5265 55.579 69.9498 55.8131C70.3876 56.0297 70.8717 56.2261 71.4021 56.4021C71.9484 56.5766 72.5309 56.7076 73.1496 56.7951C73.7668 56.8666 74.394 56.873 75.0313 56.8142C76.2422 56.7024 77.1623 56.4005 77.7918 55.9085C78.4197 55.4007 78.6947 54.7245 78.6168 53.8801C78.558 53.2428 78.3197 52.7506 77.902 52.4036C77.5003 52.055 76.9212 51.7871 76.1648 51.5999C75.4084 51.4126 74.4926 51.2401 73.4176 51.0822C72.244 50.9014 71.2514 50.6797 70.4398 50.4172C69.6268 50.1387 68.9954 49.7391 68.5456 49.2182C68.1117 48.6959 67.8536 47.9886 67.7712 47.0964C67.6712 46.013 67.8495 45.0727 68.3061 44.2753C68.7628 43.478 69.4355 42.8454 70.3242 42.3777C71.213 41.9101 72.2389 41.6225 73.402 41.5152C74.1667 41.4446 74.8831 41.4588 75.551 41.5578C76.2349 41.6553 76.8768 41.821 77.4768 42.0548C78.0769 42.2887 78.6343 42.5827 79.149 42.9368L78.3063 44.7741ZM91.1548 57.2297C89.8006 57.3547 88.6401 57.2288 87.6734 56.8521C86.7052 56.4595 85.9055 55.8906 85.2743 55.1454C84.6417 54.3844 84.1508 53.5058 83.8018 52.5096C83.4527 51.5135 83.2282 50.4738 83.1281 49.3904L82.3361 40.8109L84.4869 40.6123L85.279 49.1918C85.3555 50.0203 85.5102 50.8255 85.743 51.6074C85.9904 52.3719 86.3339 53.0471 86.7736 53.6332C87.2134 54.2193 87.7768 54.6654 88.4638 54.9715C89.1509 55.2776 89.9803 55.3858 90.9522 55.2961C91.94 55.2049 92.7436 54.9459 93.363 54.5192C93.9809 54.0765 94.4524 53.5268 94.7774 52.8702C95.1009 52.1976 95.3063 51.4636 95.3936 50.6682C95.4967 49.8713 95.5108 49.0666 95.4358 48.2541L94.6437 39.6746L96.7946 39.476L97.5867 48.0555C97.6926 49.2026 97.6579 50.3065 97.4827 51.3671C97.3219 52.4103 96.9907 53.3487 96.4893 54.1824C95.9878 55.016 95.2963 55.7065 94.4149 56.2538C93.548 56.7838 92.4613 57.109 91.1548 57.2297ZM105.077 38.7113L106.894 38.5436L115.391 54.8716L113.096 55.0834L110.63 50.2979L103.508 50.9554L101.984 56.1094L99.6895 56.3212L105.077 38.7113ZM109.998 48.6692L106.215 41.1129L103.784 49.2428L109.998 48.6692ZM117.655 54.6626L116.089 37.6947L118.24 37.4962L119.63 52.5521L129.093 51.6784L129.27 53.5903L117.655 54.6626ZM136.933 52.8828L135.366 35.915L141.245 35.3722C143.061 35.2046 144.61 35.4472 145.892 36.1001C147.188 36.7357 148.198 37.6708 148.922 38.9054C149.646 40.1241 150.079 41.5141 150.223 43.0755C150.382 44.7962 150.186 46.3247 149.634 47.661C149.083 48.9974 148.226 50.0727 147.064 50.887C145.902 51.7013 144.485 52.1856 142.812 52.3401L136.933 52.8828ZM148.049 43.2763C147.931 42.0017 147.588 40.8926 147.018 39.9489C146.465 39.0037 145.717 38.2935 144.773 37.8183C143.829 37.343 142.712 37.165 141.422 37.2841L137.694 37.6283L138.907 50.7724L142.635 50.4282C143.942 50.3076 145.014 49.9193 145.854 49.2634C146.691 48.5915 147.296 47.7404 147.667 46.7099C148.036 45.6635 148.163 44.519 148.049 43.2763ZM165.382 48.3282L165.559 50.24L154.04 51.3035L152.473 34.3356L163.777 33.292L163.954 35.2039L154.8 36.0489L155.308 41.5456L163.266 40.8109L163.432 42.6032L155.473 43.3379L156.014 49.193L165.382 48.3282ZM177.237 35.6406C177.025 35.4352 176.751 35.2436 176.413 35.0659C176.075 34.8882 175.7 34.7381 175.287 34.6156C174.872 34.4771 174.422 34.3821 173.935 34.3306C173.462 34.2618 172.971 34.2509 172.462 34.2979C171.155 34.4185 170.214 34.7545 169.638 35.3057C169.062 35.857 168.814 36.5628 168.894 37.4232C168.95 38.0286 169.153 38.4918 169.504 38.8129C169.855 39.134 170.367 39.3759 171.041 39.5387C171.731 39.7 172.597 39.853 173.639 39.9979C174.841 40.1439 175.889 40.3605 176.784 40.6475C177.678 40.9345 178.385 41.3674 178.904 41.9461C179.422 42.5088 179.728 43.3 179.822 44.3197C179.897 45.1323 179.803 45.8559 179.54 46.4908C179.292 47.1082 178.908 47.6418 178.387 48.0916C177.864 48.5255 177.238 48.8726 176.506 49.1329C175.774 49.3773 174.969 49.5399 174.093 49.6208C173.233 49.7002 172.38 49.6906 171.536 49.5918C170.705 49.4756 169.908 49.2761 169.142 48.9933C168.377 48.7104 167.652 48.3355 166.966 47.8686L167.826 45.9575C168.106 46.2048 168.457 46.4455 168.881 46.6796C169.318 46.8962 169.802 47.0926 170.333 47.2685C170.879 47.443 171.462 47.5741 172.08 47.6615C172.698 47.7331 173.325 47.7395 173.962 47.6806C175.173 47.5689 176.093 47.267 176.723 46.775C177.351 46.2672 177.626 45.591 177.548 44.7466C177.489 44.1093 177.251 43.6171 176.833 43.2701C176.431 42.9215 175.852 42.6536 175.096 42.4664C174.339 42.2791 173.423 42.1066 172.348 41.9487C171.175 41.7678 170.182 41.5462 169.371 41.2837C168.558 41.0052 167.926 40.6056 167.476 40.0847C167.043 39.5624 166.784 38.8551 166.702 37.9629C166.602 36.8795 166.78 35.9392 167.237 35.1418C167.694 34.3444 168.366 33.7119 169.255 33.2442C170.144 32.7765 171.17 32.489 172.333 32.3816C173.098 32.311 173.814 32.3252 174.482 32.4243C175.166 32.5218 175.808 32.6875 176.408 32.9213C177.008 33.1551 177.565 33.4492 178.08 33.8033L177.237 35.6406ZM183.072 48.6231L181.506 31.6553L183.657 31.4567L185.223 48.4245L183.072 48.6231ZM196.102 47.5407C194.987 47.6436 193.922 47.501 192.906 47.1127C191.904 46.7071 191.007 46.1311 190.215 45.3847C189.422 44.6225 188.779 43.7499 188.286 42.767C187.793 41.7682 187.495 40.7191 187.393 39.6198C187.287 38.4726 187.387 37.3709 187.691 36.3144C187.993 35.2421 188.459 34.2752 189.086 33.4139C189.729 32.5511 190.509 31.8525 191.423 31.3181C192.352 30.7664 193.383 30.4383 194.514 30.3338C196.155 30.1823 197.541 30.3999 198.671 30.9864C199.802 31.5729 200.689 32.3909 201.332 33.4402L199.789 34.7395C199.204 33.7973 198.459 33.127 197.555 32.7284C196.65 32.3299 195.68 32.1784 194.645 32.274C193.784 32.3534 193.021 32.6087 192.353 33.0399C191.686 33.4711 191.127 34.0288 190.676 34.7132C190.24 35.3801 189.923 36.1244 189.725 36.946C189.544 37.7662 189.493 38.6064 189.573 39.4668C189.656 40.3749 189.879 41.222 190.241 42.0081C190.617 42.7768 191.105 43.4468 191.704 44.0181C192.302 44.5735 192.975 44.9934 193.724 45.2777C194.474 45.562 195.263 45.6659 196.091 45.5895C197.063 45.4997 197.964 45.1675 198.795 44.5927C199.626 44.0179 200.384 43.1846 201.071 42.0929L201.276 44.3154C199.914 46.2729 198.19 47.348 196.102 47.5407ZM200.622 40.1097L196.966 40.4472L196.816 38.8222L202.289 38.3169L203.07 46.7769L201.253 46.9446L200.622 40.1097ZM207.291 33.2757L208.491 46.2764L206.341 46.4749L204.774 29.5071L206.59 29.3394L218.187 41.6455L216.964 28.4058L219.115 28.2072L220.68 45.1511L218.72 45.3321L207.291 33.2757Z" fill="#3C3C3C"/>
</svg>
