<svg width="29" height="27" viewBox="0 0 29 27" fill="none" xmlns="http://www.w3.org/2000/svg">
<path d="M14.3826 2.94709C18.0566 2.94709 18.5576 2.94709 20.0606 2.94709C21.3967 2.94709 22.0647 3.2554 22.5657 3.40956C23.2337 3.71787 23.7347 3.87202 24.2357 4.33449C24.7367 4.79695 25.0707 5.25942 25.2377 5.87604C25.4047 6.3385 25.5717 6.95512 25.7387 8.18837C25.7387 9.57576 25.7387 9.88407 25.7387 13.4296C25.7387 16.9752 25.7387 17.2835 25.7387 18.6709C25.7387 19.9042 25.4047 20.5208 25.2377 20.9832C24.9037 21.5999 24.7367 22.0623 24.2357 22.5248C23.7347 22.9873 23.2337 23.2956 22.5657 23.4497C22.0647 23.6039 21.3967 23.758 20.0606 23.9122C18.5576 23.9122 18.2236 23.9122 14.3826 23.9122C10.5416 23.9122 10.2076 23.9122 8.70455 23.9122C7.36854 23.9122 6.70054 23.6039 6.19953 23.4497C5.53153 23.1414 5.03052 22.9873 4.52952 22.5248C4.02851 22.0623 3.69451 21.5999 3.52751 20.9832C3.36051 20.5208 3.19351 19.9042 3.0265 18.6709C3.0265 17.2835 3.0265 16.9752 3.0265 13.4296C3.0265 9.88407 3.0265 9.57576 3.0265 8.18837C3.0265 6.95512 3.36051 6.3385 3.52751 5.87604C3.86151 5.25942 4.02851 4.79695 4.52952 4.33449C5.03052 3.87202 5.53153 3.56371 6.19953 3.40956C6.70054 3.2554 7.36854 3.10125 8.70455 2.94709C10.2076 2.94709 10.7086 2.94709 14.3826 2.94709ZM14.3826 0.634766C10.5416 0.634766 10.2076 0.634766 8.70455 0.634766C7.20154 0.634766 6.19953 0.943077 5.36452 1.25139C4.52952 1.5597 3.69451 2.02216 2.8595 2.79294C2.0245 3.56371 1.69049 4.18033 1.18949 5.10526C0.855488 5.87604 0.688486 6.80097 0.521484 8.18837C0.521484 9.57576 0.521484 10.0382 0.521484 13.4296C0.521484 16.9752 0.521484 17.2835 0.521484 18.6709C0.521484 20.0583 0.855488 20.9832 1.18949 21.754C1.52349 22.5248 2.0245 23.2956 2.8595 24.0663C3.69451 24.8371 4.36252 25.1454 5.36452 25.6079C6.19953 25.9162 7.20154 26.0704 8.70455 26.2245C10.2076 26.2245 10.7086 26.2245 14.3826 26.2245C18.0566 26.2245 18.5576 26.2245 20.0606 26.2245C21.5637 26.2245 22.5657 25.9162 23.4007 25.6079C24.2357 25.2996 25.0707 24.8371 25.9057 24.0663C26.7407 23.2956 27.0747 22.6789 27.5757 21.754C27.9097 20.9832 28.0767 20.0583 28.2437 18.6709C28.2437 17.2835 28.2437 16.8211 28.2437 13.4296C28.2437 10.0382 28.2437 9.57576 28.2437 8.18837C28.2437 6.80097 27.9097 5.87604 27.5757 5.10526C27.2417 4.33449 26.7407 3.56371 25.9057 2.79294C25.0707 2.02216 24.4027 1.71385 23.4007 1.25139C22.5657 0.943077 21.5637 0.788921 20.0606 0.634766C18.5576 0.634766 18.2236 0.634766 14.3826 0.634766Z" fill="#131313"/>
<path d="M14.3826 6.80097C10.3746 6.80097 7.20154 9.72992 7.20154 13.4296C7.20154 17.1294 10.3746 20.0583 14.3826 20.0583C18.3906 20.0583 21.5637 17.1294 21.5637 13.4296C21.5637 9.72992 18.3906 6.80097 14.3826 6.80097ZM14.3826 17.746C11.8776 17.746 9.70656 15.8961 9.70656 13.4296C9.70656 11.1173 11.7106 9.1133 14.3826 9.1133C16.8876 9.1133 19.0586 10.9632 19.0586 13.4296C19.0586 15.742 16.8876 17.746 14.3826 17.746Z" fill="#131313"/>
<path d="M21.7307 8.18837C22.653 8.18837 23.4007 7.49819 23.4007 6.64681C23.4007 5.79544 22.653 5.10526 21.7307 5.10526C20.8083 5.10526 20.0606 5.79544 20.0606 6.64681C20.0606 7.49819 20.8083 8.18837 21.7307 8.18837Z" fill="#131313"/>
</svg>
